<svg xmlns="http://www.w3.org/2000/svg" viewBox="0 0 68 53" id="Boxes"><path fill-rule="evenodd" d="M21.106 9.789c-1.475-.737-1.475-2.84 0-3.578l12-6a2 2 0 0 1 1.788 0l12 6c1.475.737 1.475 2.84 0 3.578l-12 6a2 2 0 0 1-1.788 0l-12-6zm45.244 6.15l-15.89 8.527-9.354-4.677c-1.475-.737-1.475-2.84 0-3.578l12-6a2 2 0 0 1 1.788 0L66.35 15.94zm1.65 2.52V34a2 2 0 0 1-1.106 1.789l-12 6A2 2 0 0 1 52 40V27.044l16-8.586zm-50.46 6.007L1.65 15.939l11.456-5.728a2 2 0 0 1 1.788 0l12 6c1.475.737 1.475 2.84 0 3.578l-9.353 4.677zM16 27.044V40a2 2 0 0 1-2.894 1.789l-12-6A2 2 0 0 1 0 34V18.458l16 8.586zm4.474-1.004l12.688-5.856a2 2 0 0 1 1.676 0l12.688 5.856L34 33.298 20.474 26.04zM49 28.654V44a2 2 0 0 1-1.052 1.76L35.5 52.465V35.897L49 28.654zm-16.5 23.81L20.052 45.76A2 2 0 0 1 19 44V28.654l13.5 7.243v16.567z" fill="#03c31a" class="color000000 svgShape"></path></svg>